<?xml version="1.0" standalone="no"?>
<!DOCTYPE svg PUBLIC "-//W3C//DTD SVG 20010904//EN"
 "http://www.w3.org/TR/2001/REC-SVG-20010904/DTD/svg10.dtd">
<svg version="1.0" xmlns="http://www.w3.org/2000/svg"
 width="750.000000pt" height="749.000000pt" viewBox="0 0 750.000000 749.000000"
 preserveAspectRatio="xMidYMid meet">

<g transform="translate(0.000000,749.000000) scale(0.100000,-0.100000)"
fill="#000000" stroke="none">
<path d="M3505 6959 c-948 -72 -1820 -564 -2376 -1341 -308 -430 -498 -910
-576 -1459 -25 -176 -25 -652 0 -828 121 -845 529 -1573 1174 -2092 493 -396
1046 -625 1693 -700 135 -15 525 -15 660 0 916 106 1697 548 2240 1267 349
461 547 953 632 1564 20 146 17 632 -5 789 -122 860 -534 1585 -1206 2119
-619 494 -1433 742 -2236 681z m415 -2615 c193 -57 359 -216 421 -405 35 -106
35 -281 0 -388 -143 -436 -699 -570 -1025 -247 -122 121 -186 275 -186 447 0
166 62 312 184 435 83 83 199 146 311 169 84 17 216 13 295 -11z m-1175 -921
c70 -208 170 -357 332 -492 187 -155 382 -228 633 -238 122 -4 161 -2 246 16
222 46 397 144 560 312 115 119 184 237 239 403 l33 101 826 3 826 2 0 -25 c0
-50 -32 -243 -61 -365 -215 -912 -880 -1647 -1768 -1951 -883 -303 -1854 -132
-2591 457 -109 88 -316 295 -404 404 -302 378 -502 831 -571 1290 -24 163 -25
176 -18 184 3 3 384 5 845 4 l839 -3 34 -102z"/>
</g>
</svg>
